HIERARCHY
ROOT hips
{
  OFFSET 4.514983404067499e-9 10.105397940993303 1.318478203070619
  CHANNELS 6 Xposition Yposition Zposition Yrotation Xrotation Zrotation
  JOINT spine
  {
    OFFSET -3.891297943093837e-9 0.5743022203102706 0
    CHANNELS 3 Yrotation Xrotation Zrotation
    JOINT chest
    {
      OFFSET 0 1.2550312016247926 0
      CHANNELS 3 Yrotation Xrotation Zrotation
      JOINT upperChest
      {
        OFFSET 0 1.2059856050120283 0
        CHANNELS 3 Yrotation Xrotation Zrotation
        JOINT neck
        {
          OFFSET 0 1.5290392449770056 0
          CHANNELS 3 Yrotation Xrotation Zrotation
          JOINT head
          {
            OFFSET 0 0.8186276690878121 0
            CHANNELS 3 Yrotation Xrotation Zrotation
            JOINT leftEye
            {
              OFFSET 0.4540883942785781 -0.2684596961258452 0.6133497327236779
              CHANNELS 3 Yrotation Xrotation Zrotation
              End Site
              {
                OFFSET 0.4540883942785781 -0.2684596961258452 0.6133497327236779
              }
            }
            JOINT rightEye
            {
              OFFSET -0.4540889229417456 -0.26846010916843954 0.6133525398671689
              CHANNELS 3 Yrotation Xrotation Zrotation
              End Site
              {
                OFFSET -0.4540889229417456 -0.26846010916843954 0.6133525398671689
              }
            }
          }
        }
        JOINT leftShoulder
        {
          OFFSET 1.1700010731725468 -0.4176065950681176 0
          CHANNELS 3 Yrotation Xrotation Zrotation
          JOINT leftUpperArm
          {
            OFFSET 1.1803911524554955 0 0
            CHANNELS 3 Yrotation Xrotation Zrotation
            JOINT leftLowerArm
            {
              OFFSET 2.4406171707858904 0 0
              CHANNELS 3 Yrotation Xrotation Zrotation
              JOINT leftHand
              {
                OFFSET 2.3832177068873874 0 0
                CHANNELS 3 Yrotation Xrotation Zrotation
                JOINT leftIndexProximal
                {
                  OFFSET 0.7310175006235151 0.08192774217833776 0.20404791572985242
                  CHANNELS 3 Yrotation Xrotation Zrotation
                  JOINT leftIndexIntermediate
                  {
                    OFFSET 0.3688845439429529 -0.010662034455094949 -0.014226011560394963
                    CHANNELS 3 Yrotation Xrotation Zrotation
                    JOINT leftIndexDistal
                    {
                      OFFSET 0.2271119941018298 -0.007897656478952575 -0.007580683836364496
                      CHANNELS 3 Yrotation Xrotation Zrotation
                      End Site
                      {
                        OFFSET 0.2271119941018298 -0.007897656478952575 -0.007580683836364496
                      }
                    }
                  }
                }
                JOINT leftLittleProximal
                {
                  OFFSET 0.678269929308182 0.08192620621401336 -0.323876516389586
                  CHANNELS 3 Yrotation Xrotation Zrotation
                  JOINT leftLittleIntermediate
                  {
                    OFFSET 0.34904545821382604 -0.0000017106393073174075 8.629360392919949e-9
                    CHANNELS 3 Yrotation Xrotation Zrotation
                    JOINT leftLittleDistal
                    {
                      OFFSET 0.2011060672849896 0.0031247840072243793 0.0038660318003989197
                      CHANNELS 3 Yrotation Xrotation Zrotation
                      End Site
                      {
                        OFFSET 0.2011060672849896 0.0031247840072243793 0.0038660318003989197
                      }
                    }
                  }
                }
                JOINT leftMiddleProximal
                {
                  OFFSET 0.7368181082522638 0.0819260272939426 0.02272335773438093
                  CHANNELS 3 Yrotation Xrotation Zrotation
                  JOINT leftMiddleIntermediate
                  {
                    OFFSET 0.41136739116025356 -0.0000015892429323649537 5.27860346960507e-8
                    CHANNELS 3 Yrotation Xrotation Zrotation
                    JOINT leftMiddleDistal
                    {
                      OFFSET 0.25378150303820757 -0.0000015332469289752737 1.3442958385345705e-8
                      CHANNELS 3 Yrotation Xrotation Zrotation
                      End Site
                      {
                        OFFSET 0.25378150303820757 -0.0000015332469289752737 1.3442958385345705e-8
                      }
                    }
                  }
                }
                JOINT leftRingProximal
                {
                  OFFSET 0.7284256823094712 0.08192611199801392 -0.1508405069143483
                  CHANNELS 3 Yrotation Xrotation Zrotation
                  JOINT leftRingIntermediate
                  {
                    OFFSET 0.381593741461262 -0.0000016975471202052006 6.592486757883709e-8
                    CHANNELS 3 Yrotation Xrotation Zrotation
                    JOINT leftRingDistal
                    {
                      OFFSET 0.22014536669820362 -0.0027420652959939673 -0.005037497035641991
                      CHANNELS 3 Yrotation Xrotation Zrotation
                      End Site
                      {
                        OFFSET 0.22014536669820362 -0.0027420652959939673 -0.005037497035641991
                      }
                    }
                  }
                }
                JOINT leftThumbProximal
                {
                  OFFSET 0.10842212958334652 -0.16573713992498873 -0.07779936144556289
                  CHANNELS 3 Yrotation Xrotation Zrotation
                  JOINT leftThumbIntermediate
                  {
                    OFFSET 0.40720553822379024 -0.01751267955631075 0.31852684427382305
                    CHANNELS 3 Yrotation Xrotation Zrotation
                    JOINT leftThumbDistal
                    {
                      OFFSET 0.23412859218032667 -0.01859690713588802 0.2146635043319005
                      CHANNELS 3 Yrotation Xrotation Zrotation
                      End Site
                      {
                        OFFSET 0.23412859218032667 -0.01859690713588802 0.2146635043319005
                      }
                    }
                  }
                }
              }
            }
          }
        }
        JOINT rightShoulder
        {
          OFFSET -1.1700037144859516 -0.41760703856471126 0
          CHANNELS 3 Yrotation Xrotation Zrotation
          JOINT rightUpperArm
          {
            OFFSET -1.1803910289368023 0 0
            CHANNELS 3 Yrotation Xrotation Zrotation
            JOINT rightLowerArm
            {
              OFFSET -2.440617418222133 0 0
              CHANNELS 3 Yrotation Xrotation Zrotation
              JOINT rightHand
              {
                OFFSET -2.3832181162662343 0 0
                CHANNELS 3 Yrotation Xrotation Zrotation
                JOINT rightIndexProximal
                {
                  OFFSET -0.7310168852843362 0.08192787643494381 0.20404785424302163
                  CHANNELS 3 Yrotation Xrotation Zrotation
                  JOINT rightIndexIntermediate
                  {
                    OFFSET -0.3688846010723953 -0.01066191355993129 -0.014226020535245201
                    CHANNELS 3 Yrotation Xrotation Zrotation
                    JOINT rightIndexDistal
                    {
                      OFFSET -0.22711216276130997 -0.007898902439410271 -0.007580718044857868
                      CHANNELS 3 Yrotation Xrotation Zrotation
                      End Site
                      {
                        OFFSET -0.22711216276130997 -0.007898902439410271 -0.007580718044857868
                      }
                    }
                  }
                }
                JOINT rightLittleProximal
                {
                  OFFSET -0.6782685897119165 0.08192501740206293 -0.3238766118101876
                  CHANNELS 3 Yrotation Xrotation Zrotation
                  JOINT rightLittleIntermediate
                  {
                    OFFSET -0.34904682243945895 -2.664019085329983e-7 3.792712677253007e-8
                    CHANNELS 3 Yrotation Xrotation Zrotation
                    JOINT rightLittleDistal
                    {
                      OFFSET -0.20110609302945537 0.0031260842677420797 0.0038661724369087186
                      CHANNELS 3 Yrotation Xrotation Zrotation
                      End Site
                      {
                        OFFSET -0.20110609302945537 0.0031260842677420797 0.0038661724369087186
                      }
                    }
                  }
                }
                JOINT rightMiddleProximal
                {
                  OFFSET -0.7368168209984411 0.08192485183145659 0.022723294831187846
                  CHANNELS 3 Yrotation Xrotation Zrotation
                  JOINT rightMiddleIntermediate
                  {
                    OFFSET -0.4113687575187084 -9.03141548214137e-8 4.759541079313312e-8
                    CHANNELS 3 Yrotation Xrotation Zrotation
                    JOINT rightMiddleDistal
                    {
                      OFFSET -0.2537822083525749 -9.554208624251714e-8 -1.6364827826187422e-9
                      CHANNELS 3 Yrotation Xrotation Zrotation
                      End Site
                      {
                        OFFSET -0.2537822083525749 -9.554208624251714e-8 -1.6364827826187422e-9
                      }
                    }
                  }
                }
                JOINT rightRingProximal
                {
                  OFFSET -0.7284243957721679 0.08192492753028224 -0.15084062217729294
                  CHANNELS 3 Yrotation Xrotation Zrotation
                  JOINT rightRingIntermediate
                  {
                    OFFSET -0.381595106800805 -2.5662436442530634e-7 2.929475539925619e-8
                    CHANNELS 3 Yrotation Xrotation Zrotation
                    JOINT rightRingDistal
                    {
                      OFFSET -0.22014544912608125 -0.002738002524970362 -0.0050375115645966
                      CHANNELS 3 Yrotation Xrotation Zrotation
                      End Site
                      {
                        OFFSET -0.22014544912608125 -0.002738002524970362 -0.0050375115645966
                      }
                    }
                  }
                }
                JOINT rightThumbProximal
                {
                  OFFSET -0.10842026863657162 -0.16573778435706465 -0.07779917642461898
                  CHANNELS 3 Yrotation Xrotation Zrotation
                  JOINT rightThumbIntermediate
                  {
                    OFFSET -0.40720600760521597 -0.017512298079938038 0.3185267362029824
                    CHANNELS 3 Yrotation Xrotation Zrotation
                    JOINT rightThumbDistal
                    {
                      OFFSET -0.2341289751103648 -0.018594162598156494 0.21466399510514025
                      CHANNELS 3 Yrotation Xrotation Zrotation
                      End Site
                      {
                        OFFSET -0.2341289751103648 -0.018594162598156494 0.21466399510514025
                      }
                    }
                  }
                }
              }
            }
          }
        }
      }
    }
  }
  JOINT leftUpperLeg
  {
    OFFSET -0.8565189721517369 0.4427277044191169 0
    CHANNELS 3 Yrotation Xrotation Zrotation
    JOINT leftLowerLeg
    {
      OFFSET 0 -3.918486704769693 0
      CHANNELS 3 Yrotation Xrotation Zrotation
      JOINT leftFoot
      {
        OFFSET 6.174701361744139e-7 -0.055233446196002234 4.612027801972084
        CHANNELS 3 Yrotation Xrotation Zrotation
        JOINT leftToes
        {
          OFFSET -3.4372540951010944e-7 -0.705284859504459 1.2256624571888697
          CHANNELS 3 Yrotation Xrotation Zrotation
          End Site
          {
            OFFSET -3.4372540951010944e-7 -0.705284859504459 1.2256624571888697
          }
        }
      }
    }
  }
  JOINT rightUpperLeg
  {
    OFFSET 0.8565189732197466 0.44272769569168136 0
    CHANNELS 3 Yrotation Xrotation Zrotation
    JOINT rightLowerLeg
    {
      OFFSET 0 -3.918486692649319 0
      CHANNELS 3 Yrotation Xrotation Zrotation
      JOINT rightFoot
      {
        OFFSET 6.995136552362391e-7 -0.05523244834012664 4.612028499942008
        CHANNELS 3 Yrotation Xrotation Zrotation
        JOINT rightToes
        {
          OFFSET -4.2566694985479714e-7 -0.7052846587611067 1.22566236096697
          CHANNELS 3 Yrotation Xrotation Zrotation
          End Site
          {
            OFFSET -4.2566694985479714e-7 -0.7052846587611067 1.22566236096697
          }
        }
      }
    }
  }
}
MOTION
Frames: 4
Frame Time: 0.03333333333333333
0.7884939908981323 -0.8070771707296309 0.05310964211821556 -53.145729207566696 -1.426784330014815 -9.393152066301418 -6.584300483900153 4.092341067134208 0.9317194848162856 -27.11230602577542 15.536143125069092 -2.8905377147863227 0 0 0 -43.456807441905134 -6.501374381699901 -1.4512684096632986 -1.783302020534336 6.7133120953618075 12.354961780077062 0 0 0 0 0 0 11.848172836575769 -1.5150127106788542 -14.731504292799249 -14.841294835034061 30.288826872382625 -35.59241085695282 -95.32622243068822 -0.45113219938656335 -0.08866043926196351 7.940569077968501 49.83374721305503 12.201039523960457 3.5475899354767204 -5.5950290638062565 -28.4583864471039 0.1476214448284591 -0.0040471192896844 -26.354598077663905 0.000009051990934519841 0.000005621339824011076 -0.000003041032246029818 2.2590978413217875 -4.279920888877438 -51.371335460618646 -5.307092303200072 -2.183700840576762 -45.06361195179064 -7.226043651889195e-7 0.000001546240856389587 9.333821952204942e-9 -0.2783743268236523 -1.379858167129172 -38.868501708843404 -2.4983400409673178 -0.6295220666068116 -27.386579304318985 -0.0000038117013062316366 -0.0000037185551238304296 -7.617794353115678e-7 0.3208864995302787 -2.404095051380769 -45.22284462855999 -3.1238498661265557 -0.9330078285702571 -33.70032965300246 0.000005187709614294055 7.173245426399403e-7 8.154040961297917e-7 10.779192352532334 -36.22957974678538 -17.309880981663635 27.476055996331954 -14.419496409749124 -0.221086606452834 0.000007225254568994905 6.411346860231686e-7 0.0000062192551992452395 8.847324054431837 0.07534380509819072 12.50336962304963 45.43580211478156 7.330063121063256 49.50574747334888 74.29696186362476 0.7592742683533653 -0.7301296959648611 6.964199248915349 39.48047724377063 -5.975800856584138 -6.875080174992581 -6.011133759016149 33.145579724580735 -0.5195588509679218 0.10741876149978705 18.964771020385967 0.000005885559747841575 0.0000014951033384433927 -0.00000701780708822863 -4.326197026045038 -15.241203935561227 51.56851719596059 8.228979430224484 -3.607624389487154 49.65463097060796 1.6628260911929426e-9 -3.1805543023118527e-15 -2.179830267765673e-11 -5.99380525186284 -11.552301126622863 43.063157320166376 2.3314702633476263 -0.7019603704161906 32.91842549616431 1.215836204053751e-9 -3.180554491887685e-15 -1.6036856771618462e-11 -5.5127501197392075 -12.872771539553431 48.20451935412515 4.964446707170148 -2.18930140441678 45.67167084018689 -4.3803240153668535e-10 2.0219334966109398e-23 5.2894833502657416e-12 2.4406090047743145 13.806771878159305 16.02405301596067 -16.568422824913622 5.756181291955649 0.27356828798455557 0.0000032049801200841554 -0.0000038024322030012373 -0.000008323530939162427 38.50108039127003 -24.338877038863277 10.22400044932283 -0.13711294788834574 48.46284915641062 -1.8426594385325032 17.483752665756636 -27.980485393694877 -8.312357842307657 -0.02583358937146048 -0.01657752134983509 0.029047559940754357 28.696983338633274 -27.85430878755121 -1.457691639532401 0.33566666656179756 36.58604208278477 1.5222100934843334 7.524818151945464 -13.358281468821287 8.675159799286487 -0.10631945337656092 -0.012215367370046639 0.26351142358892266
0.7883808612823486 -0.7994916452169356 0.05531547591090202 -52.95712504305309 -1.5500797067056382 -9.258309231791692 -6.573824740384343 4.056799990440444 0.8985914559765193 -27.050345268858962 15.39514591915332 -2.927575682851615 0 0 0 -43.42109235363329 -6.557100055564703 -1.4843273694958496 -1.7599224467853705 6.663640000798774 12.35905718101962 0 0 0 0 0 0 11.836555072305375 -1.5192483791542044 -14.783878131399085 -14.682402858344476 30.40244791602897 -35.648935534460435 -95.22943494162551 -0.4475776702981182 -0.09780345449104363 7.99044982766148 49.92338415054374 12.110533498831755 3.547641950639816 -5.594989173289149 -28.457739876504856 0.14759768598709774 -0.004036853161820674 -26.353938292961896 0.000009051990934519841 0.000005621339824011076 -0.000003041032246029818 2.26026426348672 -4.2804577021264825 -51.36975609947037 -5.306974172468186 -2.183531670552424 -45.062019411060724 -7.226043651889195e-7 0.000001546240856389587 9.333821952204942e-9 -0.2782549888530019 -1.379776714849273 -38.86753764837632 -2.4982705847363396 -0.6294799089886052 -27.385758994432333 -0.0000038117013062316366 -0.0000037185551238304296 -7.617794353115678e-7 0.32118529266159246 -2.403986953875112 -45.22166028773547 -3.1237446218510487 -0.9329361020750356 -33.69900248205176 0.000005187709614294055 7.173245426399403e-7 8.154040961297917e-7 10.77902957010411 -36.229465438372806 -17.309617882918086 27.476080151962844 -14.420013876448053 -0.22125527708181278 0.000007225254568994905 6.411346860231686e-7 0.0000062192551992452395 8.872978197807056 0.072198913924826 12.517806904050714 44.982836159586455 7.42889581030443 49.5594845897528 74.28916641388034 0.7564446149587509 -0.7303274441364229 7.146963057993396 39.85811890778699 -5.727826261443287 -6.873720246189992 -6.011877644593184 33.13993089212259 -0.5194831348980142 0.1073815822602171 18.961629311620584 0.000005885559747841575 0.0000014951033384433927 -0.00000701780708822863 -4.322401882819495 -15.236522879702909 51.559718994524346 8.22778977119524 -3.606087968687778 49.64359676514071 1.6628260911929426e-9 -3.1805543023118527e-15 -2.179830267765673e-11 -5.991291175746553 -11.549830642698733 43.056180459499764 2.33120139793538 -0.7017742337956577 32.91412182500564 1.215836204053751e-9 -3.180554491887685e-15 -1.6036856771618462e-11 -5.509669574999413 -12.869397164257588 48.19629149387828 4.963680995468762 -2.188515359107756 45.662414258187 -4.3803240153668535e-10 2.0219334966109398e-23 5.2894833502657416e-12 2.3552957173455025 13.786687076514099 15.680813512984566 -16.5646750395218 5.754185353829565 0.274212485279922 0.0000032049801200841554 -0.0000038024322030012373 -0.000008323530939162427 38.459122333259465 -23.998199967870338 10.176553515072664 -0.13890502563071486 48.18927794255794 -1.834749581082 17.381958202431306 -27.87430936832417 -8.22612774744076 -0.02583358937146048 -0.01657752134983509 0.029047559940754357 28.444356009857557 -27.5237761804366 -1.4823837776477584 0.33027412267619977 36.41583260542592 1.5125788750730036 7.624492885664487 -13.313988553282003 8.645409903901072 -0.10631945337656092 -0.012215367370046639 0.26351142358892266
0.7883825302124023 -0.795896293044084 0.0556529238820076 -52.876602835850896 -1.6151726581306796 -9.187998231776596 -6.557377889505407 4.0399030571877645 0.8818756579120929 -26.97444473939934 15.329832747486686 -2.9435423138581704 0 0 0 -43.40555307038828 -6.583165339272905 -1.5086564369710478 -1.7566311780715889 6.64515077133002 12.373258992596268 0 0 0 0 0 0 11.831762894882823 -1.5212045294917123 -14.809677936391859 -14.628229146289748 30.448524387966227 -35.64868830407334 -95.1955461929553 -0.44658299371884996 -0.10080628999934446 7.999660904085167 49.945004818381975 12.074339545774032 3.5476575765930174 -5.594986170777219 -28.457391259022426 0.14762522009634058 -0.004044154844169932 -26.353646582276472 0.000009051990934519841 0.000005621339824011076 -0.000003041032246029818 2.260839494290733 -4.280711126055878 -51.36899075316433 -5.306914949064717 -2.183449221532314 -45.06126301066654 -7.226043651889195e-7 0.000001546240856389587 9.333821952204942e-9 -0.27818981712438495 -1.379736255592011 -38.867063895152064 -2.498232903265969 -0.6294557884274556 -27.385341988921095 -0.0000038117013062316366 -0.0000037185551238304296 -7.617794353115678e-7 0.32136631574586333 -2.403942518539301 -45.22105362505365 -3.123700739050857 -0.9329092046397045 -33.69840378709258 0.000005187709614294055 7.173245426399403e-7 8.154040961297917e-7 10.77895842849129 -36.22938923285725 -17.309446184672602 27.476133338395552 -14.420285392675362 -0.22135731221247051 0.000007225254568994905 6.411346860231686e-7 0.0000062192551992452395 8.890197892303027 0.06968531567190851 12.535835025927575 44.72406836255603 7.450473021058606 49.5617615903058 74.26349689271936 0.7546460377582493 -0.7305146406458465 7.215880791762362 40.0275272530656 -5.647426684415348 -6.873097363448856 -6.012239500437785 33.13730268607685 -0.5194495722420626 0.10739041349688157 18.960152973618023 0.000005885559747841575 0.0000014951033384433927 -0.00000701780708822863 -4.320630929354576 -15.23432131515958 51.55561397967408 8.22722386239775 -3.6053757923327674 49.63840558389539 1.6628260911929426e-9 -3.1805543023118527e-15 -2.179830267765673e-11 -5.990113183145253 -11.54866730066526 43.052935608399636 2.331069311349356 -0.7016831933526472 32.912067060806685 1.215836204053751e-9 -3.180554491887685e-15 -1.6036856771618462e-11 -5.508232290687259 -12.867812020502047 48.19246063121551 4.9633170969168 -2.188143696523623 45.658083276446774 -4.3803240153668535e-10 2.0219334966109398e-23 5.2894833502657416e-12 2.314154465071683 13.776914317116079 15.515531701066347 -16.56292591272221 5.753247883159949 0.27451894163554574 0.0000032049801200841554 -0.0000038024322030012373 -0.000008323530939162427 38.42408609718996 -23.828451912138505 10.152821376862503 -0.14013073200030943 48.05879711687933 -1.8312501262230019 17.361566618188956 -27.817087204238078 -8.195631062220588 -0.02583358937146048 -0.01657752134983509 0.029047559940754357 28.32115068025105 -27.366050295242562 -1.4951174351894678 0.3274582942366294 36.337366566734794 1.5079525895038526 7.685997435538548 -13.28833957228445 8.626742510025203 -0.10631945337656092 -0.012215367370046639 0.26351142358892266
0.7884652614593506 -0.7895581735372481 0.05463262274861336 -52.7171249459784 -1.759652976338087 -9.045746141066775 -6.512262484924559 4.008822913150653 0.8475870643752463 -26.774206668486993 15.210402906671275 -2.979502786034931 0 0 0 -43.37097064414675 -6.625088895551658 -1.570889475460283 -1.7400010808922546 6.639235826011022 12.400397024849521 0 0 0 0 0 0 11.827451777188141 -1.5237226633049046 -14.848604872663225 -14.521865958122165 30.532876142976537 -35.61292182041219 -95.18295856717322 -0.4467930284187888 -0.10408676182542827 8.011185697888477 50.01758859579365 11.967971661836486 3.5476980328255645 -5.594941133100115 -28.45680616527383 0.1476005541234804 -0.0040411812272588615 -26.353028025314213 0.000009051990934519841 0.000005621339824011076 -0.000003041032246029818 2.261945898989386 -4.281198282426091 -51.367486263616 -5.306790863252737 -2.1832990618000556 -45.05975505364824 -7.226043651889195e-7 0.000001546240856389587 9.333821952204942e-9 -0.278080727301992 -1.3796523480052656 -38.86616545527078 -2.498161314504082 -0.6294248906291547 -27.384590403665577 -0.0000038117013062316366 -0.0000037185551238304296 -7.617794353115678e-7 0.32164155631129526 -2.40383378015152 -45.219932125080895 -3.123586542290793 -0.9328440957693178 -33.697175135659506 0.000005187709614294055 7.173245426399403e-7 8.154040961297917e-7 10.778777379679543 -36.22924105567847 -17.309205580718213 27.476127397880525 -14.420766717709613 -0.22151040599128347 0.000007225254568994905 6.411346860231686e-7 0.0000062192551992452395 8.92836435276208 0.06362361206035576 12.586445137059645 44.20008581558232 7.473810495989486 49.5157214557162 74.19924843662105 0.7509053859270456 -0.7309983265298508 7.294868416338543 40.27077581190599 -5.573763956875048 -6.871903998529344 -6.0128915283620525 33.132348276487654 -0.5194001620356726 0.10734598383873367 18.957415168874395 0.000005885559747841575 0.0000014951033384433927 -0.00000701780708822863 -4.317301122322423 -15.230231492337936 51.54793850527923 8.22617965150256 -3.60403656010905 49.62872733262445 1.6628260911929426e-9 -3.1805543023118527e-15 -2.179830267765673e-11 -5.987898382489389 -11.54650794150478 43.04683706038058 2.3308223397213435 -0.7015186695084884 32.908318490807936 1.215836204053751e-9 -3.180554491887685e-15 -1.6036856771618462e-11 -5.5055332750329775 -12.864864205215843 48.185241071634366 4.96265075191984 -2.187474917703372 45.65002792813773 -4.3803240153668535e-10 2.0219334966109398e-23 5.2894833502657416e-12 2.2355814588579785 13.758064427679972 15.20032884133226 -16.55964099748879 5.751517106130352 0.27508094173060516 0.0000032049801200841554 -0.0000038024322030012373 -0.000008323530939162427 38.29897113619094 -23.494606851894652 10.11697644789749 -0.1439481563973729 47.827203368104406 -1.8262733952549688 17.37807349035831 -27.700640647210783 -8.159620122163934 -0.02583358937146048 -0.01657752134983509 0.029047559940754357 28.07983281650618 -27.065470065715644 -1.5141446216690113 0.321545872921957 36.213650151594315 1.499838867261615 7.8058268624228395 -13.242268400776224 8.586797034542128 -0.10631945337656092 -0.012215367370046639 0.26351142358892266
